<svg id="Capa_1" enable-background="new 0 0 512 512" height="512" viewBox="0 0 512 512" width="512" xmlns="http://www.w3.org/2000/svg"><g><g><path d="m504.5 327.94c-4.142 0-7.5 3.358-7.5 7.5v71.58c0 1.434-1.167 2.6-2.6 2.6h-70.196l-7.171-7.171c-2.929-2.929-7.678-2.929-10.606 0l-3.268 3.268-15.108-15.108 3.268-3.268c2.929-2.929 2.929-7.678 0-10.606l-21.525-21.525c9.76-18.356 14.94-38.937 14.94-60.316 0-34.382-13.389-66.707-37.701-91.018-24.312-24.312-56.636-37.701-91.019-37.701s-66.707 13.389-91.018 37.701c-24.312 24.312-37.701 56.636-37.701 91.018s13.389 66.707 37.701 91.019c9.832 9.832 20.875 17.728 32.649 23.708h-180.045c-1.434 0-2.6-1.167-2.6-2.6v-218.4c0-4.142-3.358-7.5-7.5-7.5s-7.5 3.358-7.5 7.5v218.4c0 9.705 7.896 17.6 17.6 17.6h314.676l5.578 5.578c1.464 1.464 3.384 2.197 5.303 2.197s3.839-.732 5.303-2.197l3.268-3.268 15.108 15.108-3.268 3.268c-2.929 2.929-2.929 7.678 0 10.606l28.131 28.131c1.464 1.464 3.384 2.197 5.303 2.197s3.839-.732 5.303-2.197c2.929-2.929 2.929-7.678 0-10.606l-22.828-22.828 32.251-32.251 65.686 65.686c2.929 2.929 7.678 2.929 10.606 0 2.929-2.929 2.929-7.678 0-10.606l-48.818-48.817h55.198c9.705 0 17.6-7.896 17.6-17.6v-71.58c0-4.144-3.358-7.502-7.5-7.502zm-362.206-33.047c0-30.375 11.829-58.933 33.308-80.412s50.036-33.308 80.412-33.308 58.933 11.829 80.412 33.308 33.308 50.036 33.308 80.412-11.829 58.933-33.308 80.412c-22.172 22.172-51.288 33.257-80.412 33.254-29.118-.002-58.245-11.087-80.412-33.254-21.479-21.479-33.308-50.036-33.308-80.412zm187.181 105.713c6.175-4.295 12.055-9.193 17.556-14.695 5.465-5.465 10.373-11.338 14.706-17.545l13.67 13.67-32.251 32.251zm32.86 15.717 15.108-15.108 15.108 15.108-15.108 15.108z"/><path d="m495.84 96.543v-22.873c0-9.71-7.895-17.61-17.6-17.61h-61.812c-4.142 0-7.5 3.358-7.5 7.5s3.358 7.5 7.5 7.5h61.812c1.434 0 2.6 1.171 2.6 2.61v22.8h-449.68v-22.8c0-1.439 1.166-2.61 2.6-2.61h26.27c3.228 0 6.094-2.065 7.115-5.127l7.804-23.401c.352-1.06 1.341-1.772 2.461-1.772h86.46c1.118 0 2.109.718 2.465 1.783l7.8 23.39c1.021 3.062 3.887 5.127 7.115 5.127h200.179c4.142 0 7.5-3.358 7.5-7.5s-3.358-7.5-7.5-7.5h-194.774l-6.092-18.268c-2.406-7.197-9.114-12.033-16.693-12.033h-86.46c-7.597 0-14.308 4.842-16.695 12.038l-6.09 18.263h-20.865c-9.705 0-17.6 7.9-17.6 17.61v22.873c-9.032.737-16.16 8.308-16.16 17.527v39.55c0 4.142 3.358 7.5 7.5 7.5s7.5-3.358 7.5-7.5v-39.55c0-1.434 1.167-2.6 2.6-2.6h476.8c1.434 0 2.6 1.166 2.6 2.6v186.37c0 4.142 3.358 7.5 7.5 7.5s7.5-3.358 7.5-7.5v-186.37c0-9.219-7.128-16.79-16.16-17.527z"/><path d="m324.174 363.054c18.207-18.207 28.233-42.413 28.233-68.161s-10.027-49.955-28.233-68.161-42.413-28.234-68.161-28.234-49.954 10.027-68.161 28.234-28.233 42.413-28.233 68.161 10.027 49.954 28.233 68.161 42.413 28.233 68.161 28.233c25.748.001 49.955-10.026 68.161-28.233zm-149.555-68.16c0-21.741 8.467-42.181 23.84-57.555 15.374-15.374 35.813-23.84 57.554-23.84s42.181 8.467 57.555 23.84c15.373 15.374 23.84 35.813 23.84 57.555 0 21.741-8.467 42.181-23.84 57.554-15.374 15.373-35.813 23.84-57.555 23.84-21.741 0-42.181-8.467-57.554-23.84-15.373-15.374-23.84-35.813-23.84-57.554z"/></g></g></svg>